<svg version="1.0" xmlns="http://www.w3.org/2000/svg" width="400" height="234.667" viewBox="0 0 300 176"><path d="M1 87.5V175h298V0H1v87.5zm295 0V172H4V3h292v84.5z"/><path d="M119 62v43h23.9l.3-9.8.3-9.7 5 9.7 5 9.8h13.2c7.3 0 13.3-.2 13.3-.5s-2.8-6-6.2-12.8l-6.1-12.4 4.1-3.8c6.1-5.5 7.5-11.1 7-28.5-.3-13.2-.5-13.9-3.3-18.5-2-3.2-4.5-5.6-7.4-7.2-4.2-2.2-5.3-2.3-26.8-2.3H119v43zm47.8-40c2.3 1 4.2 2.3 4.2 2.8 0 .4-1.5 2.3-3.3 4-3 2.9-3.7 3.2-6.1 2.2-1.5-.5-9.1-1-16.9-1h-14.1l-4.3-4.2c-2.4-2.3-4.3-4.6-4.3-5 0-.4 9.1-.8 20.3-.8 17.8 0 20.7.3 24.5 2zM130 61.5v31.1l-5 4.9-5 4.9V20.6l5 4.9 5 4.9v31.1zm45-31.3c1.7 3.7 2 6.7 2 19.9 0 14.4-.2 15.9-2.3 20-1.3 2.4-3.7 5.2-5.4 6.2-3 1.7-3.1 1.7-9.4-1.1l-6.4-2.9 5-.6c4.4-.6 5.2-.4 7.9 2l3.1 2.8-2.9-3.2c-2.7-3-2.7-3.3-1.2-5.4 1.3-1.9 1.6-5.1 1.6-16.9 0-8-.5-15.2-1-16-.7-1.1 0-2.4 2.7-5.2 2.1-2.1 3.9-3.8 4.1-3.8.1 0 1.2 1.9 2.2 4.2zm-12.4 2.1c.4.4-1 2.6-3.3 4.9-4 3.9-4.3 4.1-10.8 4-6.6 0-6.8-.1-11.1-4.3-2.4-2.4-4.4-4.7-4.4-5.2 0-1.1 28.5-.5 29.6.6zm-25.4 5.4l4.8 4.7v19.4l-4.4 3.6c-2.4 2-4.7 3.6-5 3.6-.3 0-.6-8.1-.8-18-.2-9.9-.1-18 .2-18 .2 0 2.6 2.1 5.2 4.7zM166 51.2c0 20.2.1 20.1-20.9 19.6l-12.4-.3 4.8-3.8c4.5-3.4 5.3-3.7 11.4-3.7 5.9 0 6.8.3 10.1 3.2l3.5 3.3-3.2-3.5c-3.3-3.6-3.3-3.7-3.3-13.5v-9.9l4.2-4.3c3-3 4.4-3.9 5-3 .4.6.8 7.8.8 15.9zm-11.2 1l-.3 9.3-5.7.3-5.8.3V43h12.1l-.3 9.2zm-5.6 21c.8.7 3.6 5.3 6.2 10.1l4.7 8.8-2.5 4.6c-1.5 2.5-2.4 4.8-2.2 5 .3.3 1.2-1 2.2-2.9 3-6.1 3-6 10.6-1.2 3.8 2.5 7.2 4.3 7.5 4.1.2-.3-2.9-2.5-6.9-4.9-7-4.2-7.5-4.7-12.1-13.7-2.7-5.1-4.7-9.4-4.5-9.6.2-.3 3.4 1 7.2 2.7l6.8 3.2 5.4 10.8c3 6 5.2 11.3 4.9 11.8-.7 1.2-20.5 1.3-22.1.2-.6-.4-3.6-5.4-6.7-11.2L142 80.5v10.6c0 8.8-.3 10.8-1.6 11.3-.9.3-5.5.6-10.2.6h-8.7l4.7-4.7 4.8-4.7 4.7 4.4 4.8 4.5-4.3-4.6-4.3-4.6-.2-10.2c-.1-5.5 0-10.1.2-10.1s2.5 1.6 5.1 3.5c2.6 1.9 5 3.5 5.3 3.5.2 0 1.7-1.7 3.2-3.8l2.8-3.7-3.4 3.2-3.4 3.2-4-3.4-4-3.4 7.1-.1c4.2 0 7.6.5 8.6 1.2zM130.5 136c-4.5 10.6-6.3 14-7.7 14-1 0-1.8.7-1.8 1.5 0 1.1 1.2 1.5 5 1.5 3.6 0 5-.4 5-1.4 0-.8-.5-1.6-1.2-1.8-.9-.3-.8-1.4.3-4.4 1.4-3.7 1.7-3.9 6.1-4.2 4.6-.3 4.7-.2 6.9 4 1.4 2.8 1.8 4.3 1 4.6-.6.2-1.1 1-1.1 1.8 0 1 1.3 1.4 4.5 1.4s4.5-.4 4.5-1.4c0-.7-.8-1.6-1.8-1.8-1.1-.3-3.7-5.2-7.6-14.1-3.2-7.6-5.9-13.7-6-13.7-.1 0-2.9 6.3-6.1 14zm6.9 1.8c-3.5.5-3.8-.1-2.3-4.3l1.4-3.7 1.7 3.8 1.7 3.9-2.5.3zM18 124.3c0 .9.5 1.9 1 2.2 1.3.8 1.3 22.2 0 23-.5.3-1 1.3-1 2.1 0 1 1.3 1.4 5 1.4 3.8 0 5-.4 5-1.5 0-.9-.9-1.5-2.5-1.5-2.3 0-2.5-.3-2.5-5 0-4.4.3-5 2.1-5 1.5 0 2.8 1.6 5 6.5 2.9 6.1 3.3 6.5 6.5 6.5 3.9 0 4.9-2.7 1.2-3.2-1.6-.2-3-1.8-4.5-5l-2.2-4.7 2.9-3c3.6-3.6 3.8-7 .6-10.8-2.1-2.4-3.2-2.8-9.5-3.1-5.9-.4-7.1-.2-7.1 1.1zm13.7 3.8c1.6 1.4 1.7 5.1.1 6.7-.7.7-2.9 1.2-5 1.2H23v-4.3c0-2.4.3-4.7.7-5.1 1-1 6.2.1 8 1.5zm10.3-3.7c0 .7.9 1.6 2 1.9 1.8.5 2 1.4 2 10.9.1 10.7.6 12.5 4.7 14.6 3.1 1.7 10.5 1.5 13-.3 3-2.1 4.3-7.4 4.3-17.3 0-6.6.3-8.2 1.5-8.2.8 0 1.5-.7 1.5-1.5 0-1.2-1.3-1.5-5.5-1.5s-5.5.3-5.5 1.5c0 .8.9 1.5 2 1.5 1.9 0 2 .7 2 10 0 11.5-1.3 14-7.4 14-5.8 0-7.6-3.4-7.6-14.2 0-8.1.2-9 2-9.5 1.1-.3 2-1.2 2-1.9 0-1-1.5-1.4-5.5-1.4s-5.5.4-5.5 1.4zm35 .6c-2.3 2.3-2.7 9.1-.6 10.9.7.6 3 1.7 5.2 2.4 2.1.8 4.7 2.5 5.8 4 1.8 2.4 1.8 2.7.2 5.1-2.6 4.1-10.6 3-10.6-1.4 0-1.3-.7-2-2-2-1.5 0-2 .7-2 2.4 0 6.1 12.2 9.2 16.8 4.3 2.2-2.3 2.9-6.8 1.6-10.2-.4-1-3.6-3-7-4.6-4.7-2.1-6.4-3.3-6.4-4.8 0-4.8 6.6-6.9 9.2-2.9 1.6 2.4 3.8 1.8 3.8-1.1 0-4-10.5-5.6-14-2.1zm18 1.5c0 2.4.5 3.5 1.5 3.5.8 0 1.5-.9 1.5-2.1 0-1.7.5-2 3.3-1.7l3.2.3.3 11.7c.3 11.3.2 11.8-1.8 11.8-1.1 0-2 .7-2 1.5 0 1.2 1.3 1.5 5.5 1.5 4 0 5.5-.4 5.5-1.4 0-.7-.9-1.6-2-1.9-1.9-.5-2.1-1.2-1.8-11.9l.3-11.3 3.3-.3c2.7-.3 3.2 0 3.2 1.7 0 1.2.7 2.1 1.5 2.1 1 0 1.5-1.1 1.5-3.5V123H95v3.5zm60-2c0 .8.9 1.5 2 1.5 1.9 0 2 .7 2 12s-.1 12-2 12c-1.1 0-2 .7-2 1.5 0 1.2 1.3 1.5 5.5 1.5s5.5-.3 5.5-1.5c0-.8-.7-1.5-1.5-1.5-1.2 0-1.5-1.6-1.5-8.5 0-4.7.1-8.5.3-8.5.2 0 2.7 3.1 5.6 7 3 3.8 5.7 7 6 7 .4 0 3.1-3.2 6-7 3-3.9 5.5-7 5.7-7 .2 0 .4 3.8.4 8.5 0 6.9-.3 8.5-1.5 8.5-.8 0-1.5.7-1.5 1.5 0 1.1 1.2 1.5 5 1.5s5-.4 5-1.5c0-.8-.7-1.5-1.5-1.5-1.2 0-1.5-2-1.5-12s.3-12 1.5-12c.8 0 1.5-.7 1.5-1.5 0-.9-.9-1.5-2.2-1.5-1.7 0-4.2 2.5-9.6 9.5l-7.3 9.6-7.2-9.5c-6-7.9-7.7-9.5-9.9-9.6-1.8 0-2.8.5-2.8 1.5zm43 0c0 .8.7 1.5 1.5 1.5 1.3 0 1.5 2 1.5 12s-.2 12-1.5 12c-.8 0-1.5.7-1.5 1.5 0 1.1 1.2 1.5 5 1.5s5-.4 5-1.5c0-.8-.7-1.5-1.5-1.5-1.2 0-1.5-1.6-1.5-8.6 0-5 .4-8.3.9-7.9.5.3 3.1 3.5 5.7 7 2.6 3.6 5.1 6.5 5.4 6.5.4 0 2.9-2.8 5.5-6.3 2.7-3.4 5.2-6.6 5.7-7.1.4-.6.8 2.9.8 7.7 0 7.1-.3 8.7-1.5 8.7-.8 0-1.5.7-1.5 1.5 0 1.2 1.3 1.5 5.5 1.5s5.5-.3 5.5-1.5c0-.8-.9-1.5-2-1.5-1.9 0-2-.7-2-12s.1-12 2-12c1.1 0 2-.7 2-1.5 0-1-.9-1.5-2.7-1.4-2.3 0-4 1.6-10 9.5l-7.1 9.5-7.4-9.5c-5.4-7.1-7.9-9.6-9.5-9.6-1.4 0-2.3.6-2.3 1.5zm41 0c0 .8.9 1.5 2 1.5 1.9 0 2 .7 2 12s-.1 12-2 12c-1.1 0-2 .7-2 1.5 0 1.2 1.3 1.5 5.5 1.5 4 0 5.5-.4 5.5-1.4 0-.7-.9-1.6-2-1.9-1.8-.5-2-1.4-2-11.7 0-10.3.2-11.2 2-11.7 1.1-.3 2-1.2 2-1.9 0-1-1.5-1.4-5.5-1.4-4.2 0-5.5.3-5.5 1.5zm21.1.7c-12.7 8.7-7.1 27.8 8.2 27.8 6.5 0 11.3-3 13.8-8.4 2.4-5.3 2.4-8-.1-13-2.8-5.7-6.3-7.9-13-8.4-4.5-.3-6.1 0-8.9 2zm14.3 2.7c3.7 2.5 5.5 5.7 5.6 9.9.1 9.2-8.9 14.9-17 10.7-4.1-2.1-6-5.3-6-10.3 0-5.4 1.2-7.8 5.3-10.2 4.1-2.5 8.4-2.5 12.1-.1z"/></svg>